name processed_emg_signals										
nRows=98										
nColumns=7										
 										
endheader										
time	RGLTMED	RRF	RADDLONG	RST	RTA	RGM				
0.9	0.0178295	0.096489456	0.068970587	0.015631778	0.556125077	0.049780061				
0.901	0.017775803	0.095853757	0.068822643	0.015410168	0.557934645	0.049909434				
0.902	0.017724662	0.095184273	0.06865878	0.015186479	0.5595902	0.050016836				
0.903	0.01767612	0.094481782	0.068479053	0.014960935	0.561091905	0.050102478				
0.904	0.01763022	0.093747097	0.068283541	0.014733771	0.562440055	0.050166596				
0.905	0.017587003	0.092981066	0.068072343	0.014505233	0.563635082	0.050209453				
0.906	0.017546514	0.092184566	0.067845582	0.014275579	0.564677547	0.050231335				
0.907	0.017508796	0.091358505	0.067603406	0.014045077	0.565568143	0.050232552				
0.908	0.017473892	0.090503818	0.067345982	0.013814006	0.56630769	0.050213436				
0.909	0.017441844	0.089621468	0.067073505	0.01358266	0.566897135	0.050174341				
0.91	0.017412698	0.088712443	0.066786188	0.01335134	0.567337551	0.050115642				
0.911	0.017386495	0.087777751	0.066484271	0.013120362	0.567630132	0.050037734				
0.912	0.017363279	0.086818425	0.066168016	0.012890051	0.567776192	0.049941031				
0.913	0.017343091	0.085835514	0.065837708	0.012660745	0.567777165	0.049825963				
0.914	0.017325973	0.084830086	0.065493653	0.012432792	0.567634597	0.049692981				
0.915	0.017311966	0.083803226	0.065136181	0.012206554	0.567350151	0.049542549				
0.916	0.017301111	0.08275603	0.064765643	0.011982401	0.566925597	0.049375147				
0.917	0.017293446	0.081689609	0.064382412	0.011760717	0.566362816	0.049191271				
0.918	0.017289011	0.080605083	0.063986882	0.011541895	0.56566379	0.048991427				
0.919	0.017287841	0.079503579	0.063579467	0.011326341	0.564830608	0.048776138				
0.92	0.017289974	0.078386235	0.063160601	0.01111447	0.563865454	0.048545934				
0.921	0.017295444	0.07725419	0.062730737	0.010906709	0.562770612	0.048301358				
0.922	0.017304285	0.076108589	0.062290345	0.010703494	0.561548458	0.048042964				
0.923	0.017316527	0.074950577	0.061839916	0.010505272	0.560201458	0.047771312				
0.924	0.017332201	0.0737813	0.061379956	0.010312502	0.558732168	0.047486972				
0.925	0.017351336	0.072601902	0.060910986	0.01012565	0.557143226	0.047190519				
0.926	0.017373958	0.071413524	0.060433543	0.009945192	0.555437355	0.046882537				
0.927	0.017400091	0.070217303	0.059948179	0.009771615	0.553617355	0.046563612				
0.928	0.017429758	0.069014368	0.059455458	0.009605413	0.5516861	0.046234337				
0.929	0.017462979	0.067805841	0.058955958	0.009447089	0.54964654	0.045895307				
0.93	0.017499773	0.066592836	0.058450266	0.009297156	0.547501693	0.045547121				
0.931	0.017540155	0.065376454	0.057938982	0.009156133	0.545254642	0.045190379				
0.932	0.01758414	0.064157786	0.057422711	0.009024547	0.542908536	0.044825681				
0.933	0.017631737	0.06293791	0.056902071	0.008902932	0.540466583	0.04445363				
0.934	0.017682956	0.061717887	0.056377684	0.008791829	0.537932048	0.044074827				
0.935	0.017737802	0.060498765	0.05585018	0.008691785	0.53530825	0.04368987				
0.936	0.017796279	0.059281575	0.055320191	0.008603354	0.53259856	0.043299359				
0.937	0.017858387	0.058067327	0.054788357	0.008527094	0.529806396	0.042903888				
0.938	0.017924124	0.056857016	0.054255316	0.008463567	0.526935219	0.042504049				
0.939	0.017993484	0.055651614	0.053721712	0.008413342	0.523988534	0.042100429				
0.94	0.01806646	0.054452074	0.053188188	0.008376988	0.520969882	0.041693611				
0.941	0.018143039	0.053259325	0.052655385	0.008355081	0.51788284	0.041284172				
0.942	0.018223207	0.052074276	0.052123944	0.008348197	0.514731017	0.040872682				
0.943	0.018306948	0.050897811	0.051594505	0.008356915	0.511518049	0.040459707				
0.944	0.018394239	0.04973079	0.051067701	0.008381816	0.508247598	0.040045803				
0.945	0.018485058	0.048574047	0.050544163	0.008423479	0.504923349	0.03963152				
0.946	0.018579377	0.047428393	0.050024515	0.008482487	0.501549005	0.039217397				
0.947	0.018677166	0.04629461	0.049509375	0.00855942	0.498128284	0.038803966				
0.948	0.01877839	0.045173456	0.048999352	0.008654857	0.494664919	0.03839175				
0.949	0.018883011	0.044065661	0.04849505	0.008769375	0.49116265	0.037981259				
0.95	0.01899099	0.042971926	0.047997059	0.00890355	0.487625223	0.037572996				
0.951	0.019102282	0.041892925	0.047505961	0.009057953	0.484056389	0.03716745				
0.952	0.019216839	0.040829306	0.047022327	0.009233152	0.480459898	0.0367651				
0.953	0.019334609	0.039781685	0.046546714	0.009429708	0.476839497	0.036366414				
0.954	0.019455538	0.038750652	0.046079669	0.00964818	0.473198924	0.035971846				
0.955	0.019579568	0.037736767	0.045621722	0.009889119	0.469541912	0.035581838				
0.956	0.019706635	0.03674056	0.04517339	0.010153068	0.465872178	0.035196819				
0.957	0.019836676	0.035762534	0.044735175	0.010440564	0.462193423	0.034817205				
0.958	0.01996962	0.034803162	0.044307561	0.010752135	0.458509332	0.034443398				
0.959	0.020105396	0.033862887	0.043891019	0.011088299	0.454823565	0.034075787				
0.96	0.020243927	0.032942124	0.043485998	0.011449565	0.451139757	0.033714745				
0.961	0.020385134	0.03204126	0.043092932	0.01183643	0.447461515	0.033360633				
0.962	0.020528933	0.031160651	0.042712236	0.012249381	0.443792414	0.033013796				
0.963	0.020675238	0.030300626	0.042344306	0.012688892	0.440135995	0.032674563				
0.964	0.020823961	0.029461484	0.041989516	0.013155424	0.436495759	0.032343252				
0.965	0.020975006	0.028643499	0.041648223	0.013649422	0.432875166	0.032020161				
0.966	0.021128279	0.027846914	0.041320761	0.014171321	0.429277632	0.031705577				
0.967	0.02128368	0.027071946	0.041007444	0.014721537	0.425706522	0.03139977				
0.968	0.021441106	0.026318785	0.040708564	0.015300472	0.422165153	0.031102994				
0.969	0.021600452	0.025587594	0.040424392	0.015908509	0.418656785	0.030815488				
0.97	0.021761608	0.02487851	0.040155176	0.016546016	0.41518462	0.030537476				
0.971	0.021924463	0.024191644	0.039901142	0.017213342	0.411751797	0.030269167				
0.972	0.022088904	0.023527081	0.039662492	0.017910817	0.408361391	0.030010754				
0.973	0.022254812	0.022884882	0.039439407	0.018638752	0.405016407	0.029762414				
0.974	0.022422069	0.022265085	0.039232044	0.019397437	0.40171978	0.02952431				
0.975	0.022590551	0.021667701	0.039040536	0.020187142	0.398474366	0.029296589				
0.976	0.022760134	0.021092722	0.038864993	0.021008116	0.395282944	0.029079382				
0.977	0.022930692	0.020540115	0.038705503	0.021860586	0.39214821	0.028872805				
0.978	0.023102095	0.020009824	0.038562128	0.022744756	0.389072774	0.028676962				
0.979	0.023274211	0.019501774	0.038434908	0.023660807	0.386059158	0.028491939				
0.98	0.023446908	0.019015869	0.038323858	0.024608897	0.38310979	0.028317807				
0.981	0.02362005	0.018551993	0.038228973	0.02558916	0.380227004	0.028154625				
0.982	0.023793501	0.018110009	0.03815022	0.026601707	0.377413035	0.028002436				
0.983	0.023967122	0.017689764	0.038087547	0.027646621	0.374670018	0.027861269				
0.984	0.024140773	0.017291085	0.038040876	0.028723963	0.371999983	0.02773114				
0.985	0.024314314	0.016913782	0.038010107	0.029833766	0.369404854	0.027612049				
0.986	0.0244876	0.016557651	0.037995118	0.030976038	0.366886445	0.027503986				
0.987	0.02466049	0.016222467	0.037995764	0.032150762	0.364446458	0.027406924				
0.988	0.024832838	0.015907996	0.038011878	0.033357893	0.362086483	0.027320825				
0.989	0.025004498	0.015613984	0.038043273	0.03459736	0.359807992	0.027245638				
0.99	0.025175326	0.015340168	0.038089738	0.035869065	0.357612341	0.0271813				
0.991	0.025345174	0.015086268	0.038151042	0.037172882	0.355500764	0.027127735				
0.992	0.025513895	0.014851995	0.038226935	0.038508661	0.353474374	0.027084855				
0.993	0.025681341	0.014637045	0.038317146	0.039876221	0.351534163	0.027052561				
0.994	0.025847367	0.014441107	0.038421384	0.041275355	0.349680996	0.027030742				
0.995	0.026011823	0.014263857	0.038539339	0.04270583	0.347915614	0.027019277				
0.996	0.026174562	0.014104961	0.038670684	0.044167385	0.346238631	0.027018032				
0.997	0.026335438	0.01396408	0.038815074	0.04565973	0.344650533	0.027026866				
